<?xml version="1.0" encoding="UTF-8"?>
<!DOCTYPE svg PUBLIC "-//W3C//DTD SVG 1.1//EN" "http://www.w3.org/Graphics/SVG/1.1/DTD/svg11.dtd">
<!-- Creator: CorelDRAW 2018 (64 Bit Versión de evaluación) -->
<svg xmlns="http://www.w3.org/2000/svg" xml:space="preserve" width="70mm" height="20mm" version="1.1" style="shape-rendering:geometricPrecision; text-rendering:geometricPrecision; image-rendering:optimizeQuality; fill-rule:evenodd; clip-rule:evenodd"
viewBox="0 0 7000 2000"
 xmlns:xlink="http://www.w3.org/1999/xlink">
 <defs>
  <style type="text/css">
   <![CDATA[
    .str0 {stroke:white;stroke-width:8.82;stroke-miterlimit:10}
    .str2 {stroke:#CB525A;stroke-width:3.24;stroke-miterlimit:10}
    .str3 {stroke:#CB525A;stroke-width:3.24;stroke-miterlimit:10}
    .str1 {stroke:#0098DA;stroke-width:6.5;stroke-miterlimit:10}
    .fil4 {fill:none;fill-rule:nonzero}
    .fil2 {fill:#0098DA;fill-rule:nonzero}
    .fil1 {fill:#04BEE9;fill-rule:nonzero}
    .fil3 {fill:#CB525A;fill-rule:nonzero}
    .fil5 {fill:#E63639;fill-rule:nonzero}
    .fil0 {fill:white;fill-rule:nonzero}
   ]]>
  </style>
 </defs>
 <g id="Capa_x0020_1">
  <metadata id="CorelCorpID_0Corel-Layer"/>
  <g id="_2426484796448">
   <path class="fil0 str0" d="M609.63 1236.5c9.51,5.43 16.31,8.15 21.74,8.15 6.8,0 13.59,-2.72 19.03,-8.15 5.44,-5.44 8.15,-12.24 8.15,-19.03 0,-12.23 -6.79,-21.75 -21.74,-29.9l-515.09 -288.12 515.09 -286.77c14.95,-8.15 23.1,-17.67 23.1,-29.9 0,-6.79 -2.71,-13.59 -8.15,-19.02 -5.44,-5.44 -12.23,-8.16 -20.39,-8.16 -4.07,0 -12.23,2.72 -21.74,8.16l-602.07 335.69 602.07 337.05z"/>
   <path class="fil0 str0" d="M1215.8 428.31c0,-6.8 -2.72,-13.59 -8.16,-19.03 -5.44,-5.44 -12.23,-8.15 -19.03,-8.15 -6.79,0 -12.23,1.36 -16.31,4.07 -5.43,4.08 -9.51,10.87 -14.94,20.39l-448.5 960.86c-4.08,9.52 -6.8,17.67 -6.8,21.75 0,6.79 2.72,13.59 8.16,19.02 5.44,5.44 12.23,8.16 20.38,8.16 12.24,0 21.75,-8.16 28.54,-24.46l449.86 -960.87c4.08,-10.87 6.8,-17.67 6.8,-21.74z"/>
   <path class="fil0 str0" d="M6390.39 560.58c-9.51,-5.43 -17.67,-8.15 -21.75,-8.15 -8.15,0 -14.94,2.72 -20.38,8.15 -5.44,5.44 -8.16,12.23 -8.16,19.03 0,12.23 8.16,21.74 23.11,29.9l515.09 286.76 -515.09 288.13c-14.95,8.15 -23.11,17.66 -23.11,29.89 0,6.8 2.72,13.6 8.16,19.03 5.44,5.44 12.23,8.16 20.38,8.16 4.08,0 12.24,-2.72 21.75,-8.16l602.07 -337.05 -602.07 -335.69z"/>
   <path class="fil1" d="M1295.9 1190.85c-13.21,0 -22.45,2.65 -27.74,7.93 -6.6,3.96 -9.24,10.57 -9.24,18.49 0,7.93 2.64,14.53 9.24,19.82 5.29,5.28 14.53,7.92 27.74,7.92l290.6 0c55.47,0 105.67,-14.53 147.94,-42.27 56.79,-38.3 97.74,-84.54 121.51,-136.05 25.1,-52.83 36.99,-105.67 36.99,-161.15l0 -75.29c0,-44.91 -6.6,-84.53 -18.49,-117.55 -17.17,-44.91 -43.59,-88.5 -77.93,-129.45 -19.82,-23.78 -47.56,-44.91 -85.86,-64.72 -36.99,-18.49 -77.93,-27.74 -124.16,-27.74l-290.6 0c-13.21,0 -22.45,2.64 -27.74,7.92 -6.6,3.97 -9.24,10.57 -9.24,18.5 0,9.24 2.64,15.85 9.24,19.81 5.29,5.28 14.53,7.93 27.74,7.93l44.91 0 0 645.9 -44.91 0zm99.07 -645.9l196.81 0c34.34,0 67.37,7.92 96.43,23.77 30.37,14.53 52.83,31.7 68.68,51.52 29.06,34.34 50.19,70 66.04,109.63 10.57,25.1 15.86,55.47 15.86,88.5l0 99.06c0,39.63 -10.57,80.58 -30.39,122.84 -19.81,40.95 -48.87,76.62 -88.5,106.99 -40.94,29.06 -83.21,43.59 -128.12,43.59l-196.81 0 0 -645.9zm1059.47 210.02c-56.79,-58.13 -129.44,-87.18 -217.94,-87.18 -85.86,0 -158.51,27.74 -216.63,84.53 -58.12,55.48 -87.17,122.85 -87.17,202.1 0,85.85 30.38,159.82 92.46,220.58 62.08,60.76 140.01,91.14 232.47,91.14 55.48,0 108.31,-9.24 161.15,-27.73 52.83,-19.82 89.82,-39.63 109.63,-60.76 6.61,-6.61 10.57,-14.53 10.57,-21.14 0,-7.92 -2.64,-14.53 -7.93,-19.81 -5.28,-5.29 -10.56,-7.93 -17.17,-7.93 -6.6,0 -13.21,2.64 -22.45,9.25 -27.74,22.45 -63.41,40.95 -106.99,54.16 -44.92,13.21 -87.18,19.81 -126.81,19.81 -72.65,0 -133.41,-21.14 -182.28,-63.4 -50.19,-43.59 -79.25,-99.07 -88.5,-169.07l552.13 0c1.32,-92.47 -27.74,-166.43 -84.54,-224.55zm-467.59 170.39c10.57,-60.76 39.63,-109.63 85.86,-147.94 44.91,-36.98 100.38,-55.48 163.79,-55.48 62.08,0 117.56,18.5 163.79,56.8 44.91,36.99 73.96,85.86 84.53,146.62l-497.97 0zm1216.65 -184.92l60.76 0c13.21,0 23.78,-2.64 29.06,-7.93 5.29,-5.28 7.93,-11.89 7.93,-19.81 0,-7.93 -2.64,-13.21 -7.93,-18.5 -5.28,-5.28 -15.85,-7.92 -29.06,-7.92l-217.94 0c-13.21,0 -22.46,2.64 -27.74,7.92 -6.61,5.29 -9.25,11.89 -9.25,18.5 0,9.24 2.64,14.53 9.25,19.81 5.28,5.29 14.53,7.93 27.74,7.93l99.06 0 -194.17 450.41 -23.77 0 -198.13 -450.41 99.06 0c13.21,0 22.46,-2.64 29.06,-7.93 5.28,-5.28 7.92,-11.89 7.92,-19.81 0,-7.93 -2.64,-13.21 -7.92,-18.5 -6.6,-5.28 -15.85,-7.92 -29.06,-7.92l-217.94 0c-13.21,0 -22.46,2.64 -27.74,7.92 -6.61,5.29 -9.25,11.89 -9.25,18.5 0,9.24 2.64,14.53 9.25,19.81 5.28,5.29 14.53,7.93 27.74,7.93l60.76 0 220.58 504.57 95.11 0 216.62 -504.57z"/>
   <path class="fil2 str1" d="M1295.89 1190.87c-13.21,0 -22.46,2.65 -27.74,7.93 -6.6,3.96 -9.25,10.57 -9.25,18.49 0,7.93 2.65,14.53 9.25,19.81 5.28,5.29 14.53,7.93 27.74,7.93l290.59 0c55.48,0 105.67,-14.53 147.94,-42.27 56.8,-38.3 97.74,-84.53 121.52,-136.05 25.09,-52.83 36.98,-105.67 36.98,-161.14l0 -75.3c0,-44.9 -6.6,-84.54 -18.49,-117.56 -17.17,-44.91 -43.58,-88.49 -77.93,-129.44 -19.82,-23.78 -47.55,-44.91 -85.86,-64.72 -36.98,-18.49 -77.93,-27.74 -124.16,-27.74l-290.59 0c-13.21,0 -22.46,2.65 -27.74,7.92 -6.6,3.97 -9.25,10.58 -9.25,18.5 0,9.24 2.65,15.85 9.25,19.81 5.28,5.28 14.53,7.93 27.74,7.93l44.91 0 0 645.9 -44.91 0zm99.06 -645.9l196.81 0c34.34,0 67.36,7.92 96.43,23.77 30.37,14.53 52.83,31.7 68.68,51.51 29.06,34.35 50.19,70.01 66.05,109.64 10.56,25.1 15.85,55.48 15.85,88.49l0 99.08c0,39.62 -10.58,80.57 -30.39,122.84 -19.81,40.94 -48.87,76.61 -88.49,106.99 -40.95,29.06 -83.22,43.58 -128.13,43.58l-196.81 0 0 -645.9zm1059.65 210.02c-56.8,-58.13 -129.45,-87.19 -217.95,-87.19 -85.85,0 -158.52,27.75 -216.63,84.55 -58.12,55.47 -87.18,122.83 -87.18,202.09 0,85.86 30.39,159.82 92.47,220.58 62.08,60.77 140.01,91.15 232.47,91.15 55.48,0 108.32,-9.25 161.14,-27.74 52.84,-19.82 89.83,-39.63 109.65,-60.77 6.6,-6.6 10.56,-14.52 10.56,-21.13 0,-7.93 -2.65,-14.52 -7.92,-19.81 -5.29,-5.29 -10.58,-7.93 -17.18,-7.93 -6.6,0 -13.21,2.64 -22.45,9.25 -27.73,22.46 -63.41,40.95 -106.99,54.16 -44.92,13.2 -87.18,19.81 -126.81,19.81 -72.65,0 -133.41,-21.14 -182.28,-63.41 -50.19,-43.58 -79.25,-99.06 -88.5,-169.06l552.13 0c1.31,-92.47 -27.74,-166.43 -84.53,-224.55zm-467.6 170.39c10.57,-60.76 39.62,-109.63 85.86,-147.95 44.91,-36.97 100.38,-55.47 163.79,-55.47 62.08,0 117.55,18.5 163.79,56.8 44.91,36.99 73.97,85.86 84.53,146.62l-497.97 0zm1216.83 -184.92l60.76 0c13.2,0 23.77,-2.65 29.05,-7.93 5.29,-5.28 7.94,-11.88 7.94,-19.82 0,-7.92 -2.65,-13.2 -7.94,-18.48 -5.28,-5.29 -15.85,-7.93 -29.05,-7.93l-217.95 0c-13.2,0 -22.45,2.64 -27.74,7.93 -6.6,5.28 -9.24,11.88 -9.24,18.48 0,9.25 2.64,14.54 9.24,19.82 5.29,5.28 14.54,7.93 27.74,7.93l99.07 0 -194.17 450.41 -23.77 0 -198.13 -450.41 99.05 0c13.22,0 22.46,-2.65 29.06,-7.93 5.29,-5.28 7.93,-11.88 7.93,-19.82 0,-7.92 -2.64,-13.2 -7.93,-18.48 -6.6,-5.29 -15.84,-7.93 -29.06,-7.93l-217.94 0c-13.21,0 -22.45,2.64 -27.73,7.93 -6.62,5.28 -9.26,11.88 -9.26,18.48 0,9.25 2.64,14.54 9.26,19.82 5.28,5.28 14.52,7.93 27.73,7.93l60.76 0 220.59 504.57 95.1 0 216.63 -504.57zm130.43 504.55"/>
   <path class="fil3" d="M3696.74 772.89c-7.31,-2.45 -14.61,-3.66 -23.15,-4.87 -59.67,-3.67 -103.51,86.45 -125.44,170.51 -24.36,92.56 -30.45,211.91 8.52,222.87 31.67,8.53 81.61,-45.06 121.79,-180.25 2.45,-64.55 8.54,-135.19 18.28,-208.26zm7.3 -56.03c19.49,-133.97 48.72,-258.2 87.7,-313.02 77.95,-109.6 187.56,19.49 187.56,19.49 0,0 -105.97,129.1 -158.34,543.2 -13.39,109.61 -17.04,211.92 20.72,219.23 37.75,8.53 90.12,-65.77 120.57,-153.46l2.44 0c21.92,-7.31 41.4,8.53 25.57,47.5 -45.06,116.92 -129.1,200.95 -224.1,176.6 -60.89,-15.83 -85.25,-79.16 -90.12,-171.72 -24.36,71.85 -70.65,159.54 -157.12,165.63 -102.31,7.31 -160.77,-124.22 -130.32,-293.52 32.88,-177.82 158.33,-288.65 294.74,-248.47 6.09,1.24 13.4,4.87 20.7,8.54z"/>
   <path class="fil3 str2" d="M3696.74 772.89c-7.31,-2.45 -14.61,-3.66 -23.15,-4.87 -59.67,-3.67 -103.51,86.45 -125.44,170.51 -24.36,92.56 -30.45,211.91 8.52,222.87 31.67,8.53 81.61,-45.06 121.79,-180.25 2.45,-64.55 8.54,-135.19 18.28,-208.26zm7.3 -56.03c19.49,-133.97 48.72,-258.2 87.7,-313.02 77.95,-109.6 187.56,19.49 187.56,19.49 0,0 -105.97,129.1 -158.34,543.2 -13.39,109.61 -17.04,211.92 20.72,219.23 37.75,8.53 90.12,-65.77 120.57,-153.46l2.44 0c21.92,-7.31 41.4,8.53 25.57,47.5 -45.06,116.92 -129.1,200.95 -224.1,176.6 -60.89,-15.83 -85.25,-79.16 -90.12,-171.72 -24.36,71.85 -70.65,159.54 -157.12,165.63 -102.31,7.31 -160.77,-124.22 -130.32,-293.52 32.88,-177.82 158.33,-288.65 294.74,-248.47 6.09,1.24 13.4,4.87 20.7,8.54z"/>
   <path class="fil3" d="M4628.43 1106.6c-32.88,3.65 -63.34,8.52 -86.47,17.05 -43.85,15.83 -40.2,49.93 -21.92,64.55 24.36,20.7 80.38,2.43 108.39,-81.6zm-517.61 -65.77c146.15,-96.22 179.03,-282.56 135.18,-294.74 -48.71,-14.62 -99.88,108.38 -121.79,192.44 -8.52,31.66 -13.39,66.97 -13.39,102.3zm-1.23 226.53c-92.56,-21.92 -176.6,-137.62 -144.93,-310.57 31.66,-172.95 159.55,-289.87 315.44,-261.85 218.01,40.18 144.94,255.76 -163.2,409.22 9.74,47.5 31.67,86.47 66.99,92.56 116.92,21.93 248.46,-125.45 294.73,-337.37 1.23,-10.96 3.65,-20.7 4.88,-31.66 -30.45,-30.44 -53.59,-68.21 -45.07,-112.05 10.97,-48.72 114.49,-109.63 140.07,-82.82 19.49,19.48 14.62,82.82 7.3,125.45 -1.22,2.43 -1.22,4.88 -1.22,6.08 7.32,6.09 17.06,9.75 26.8,14.62 79.17,43.84 180.26,116.92 199.74,224.1 51.15,-15.83 91.35,-40.19 110.83,-95.01l1.22 0c23.14,-8.51 41.41,8.54 26.79,46.29 -25.56,64.55 -77.94,97.44 -138.84,118.14l0 2.44c-30.45,171.73 -232.62,219.22 -316.66,165.64 -58.46,-36.54 -34.1,-132.76 54.81,-174.17 29.23,-12.18 60.89,-20.7 90.12,-28.01 1.22,-73.07 -37.75,-126.66 -86.47,-159.56l-3.65 8.54c-95,284.99 -276.48,416.53 -439.68,379.99z"/>
   <path class="fil4 str2" d="M4628.43 1106.6c-32.88,3.65 -63.34,8.52 -86.47,17.05 -43.85,15.83 -40.2,49.93 -21.92,64.55 24.36,20.7 80.38,2.43 108.39,-81.6zm-517.61 -65.77c146.15,-96.22 179.03,-282.56 135.18,-294.74 -48.71,-14.62 -99.88,108.38 -121.79,192.44 -8.52,31.66 -13.39,66.97 -13.39,102.3zm-1.23 226.53c-92.56,-21.92 -176.6,-137.62 -144.93,-310.57 31.66,-172.95 159.55,-289.87 315.44,-261.85 218.01,40.18 144.94,255.76 -163.2,409.22 9.74,47.5 31.67,86.47 66.99,92.56 116.92,21.93 248.46,-125.45 294.73,-337.37 1.23,-10.96 3.65,-20.7 4.88,-31.66 -30.45,-30.44 -53.59,-68.21 -45.07,-112.05 10.97,-48.72 114.49,-109.63 140.07,-82.82 19.49,19.48 14.62,82.82 7.3,125.45 -1.22,2.43 -1.22,4.88 -1.22,6.08 7.32,6.09 17.06,9.75 26.8,14.62 79.17,43.84 180.26,116.92 199.74,224.1 51.15,-15.83 91.35,-40.19 110.83,-95.01l1.22 0c23.14,-8.51 41.41,8.54 26.79,46.29 -25.56,64.55 -77.94,97.44 -138.84,118.14l0 2.44c-30.45,171.73 -232.62,219.22 -316.66,165.64 -58.46,-36.54 -34.1,-132.76 54.81,-174.17 29.23,-12.18 60.89,-20.7 90.12,-28.01 1.22,-73.07 -37.75,-126.66 -86.47,-159.56l-3.65 8.54c-95,284.99 -276.48,416.53 -439.68,379.99z"/>
   <path class="fil3" d="M5049.81 685.2c-57.23,-15.85 -75.51,-69.44 -64.55,-120.59 15.84,-71.85 81.6,-91.34 141.28,-64.54 74.3,31.66 75.52,76.72 42.63,131.54 -26.79,43.84 -77.95,65.76 -119.36,53.59zm108.4 347.1c21.92,-7.31 41.41,8.53 26.79,47.5 -46.27,116.92 -130.31,211.91 -225.32,187.56 -91.34,-24.35 -123,-191.22 -77.95,-386.08 36.55,-148.6 125.46,-199.75 219.23,-132.75 0,0 -51.15,85.25 -77.95,208.26 -26.79,124.22 -24.35,232.62 10.97,239.93 40.19,8.53 91.34,-76.73 123.01,-164.42l1.22 0z"/>
   <path class="fil4 str2" d="M5049.81 685.2c-57.23,-15.85 -75.51,-69.44 -64.55,-120.59 15.84,-71.85 81.6,-91.34 141.28,-64.54 74.3,31.66 75.52,76.72 42.63,131.54 -26.79,43.84 -77.95,65.76 -119.36,53.59zm108.4 347.1c21.92,-7.31 41.41,8.53 26.79,47.5 -46.27,116.92 -130.31,211.91 -225.32,187.56 -91.34,-24.35 -123,-191.22 -77.95,-386.08 36.55,-148.6 125.46,-199.75 219.23,-132.75 0,0 -51.15,85.25 -77.95,208.26 -26.79,124.22 -24.35,232.62 10.97,239.93 40.19,8.53 91.34,-76.73 123.01,-164.42l1.22 0z"/>
   <path class="fil3" d="M5463.89 783.84c-10.97,-8.52 -23.14,-14.61 -38.98,-15.82 -58.46,-3.67 -103.52,86.45 -124.22,170.51 -25.58,92.56 -30.45,211.91 7.3,222.87 31.67,8.53 77.95,-40.19 116.92,-163.2l23.14 -147.36c3.66,-25.6 9.74,-47.51 15.84,-67zm-101.09 549.28c-63.33,28.02 -118.14,71.86 -140.06,138.84 -23.15,70.65 -20.71,132.76 29.23,118.15 35.31,-12.18 69.42,-68.21 110.83,-256.99zm123.02 -593.13c42.62,-66.98 112.05,-63.33 163.19,-12.18 0,0 -47.5,52.38 -75.5,238.72 -13.41,92.56 -31.67,176.61 -51.16,252.12 68.2,-35.33 135.18,-90.13 169.28,-186.35l2.45 0c20.71,-7.31 41.4,8.53 25.58,47.5 -41.42,103.52 -110.84,163.21 -216.8,204.61 -59.68,190 -142.5,314.22 -244.81,349.54 -121.79,41.42 -211.91,-37.75 -171.72,-166.86 36.53,-113.26 152.23,-147.36 288.64,-192.43 8.54,-35.31 15.84,-76.72 23.15,-121.78 -28.02,51.15 -68.2,93.78 -127.88,97.43 -101.09,7.31 -160.77,-124.22 -129.11,-293.52 32.89,-177.82 158.34,-288.65 292.3,-248.47 19.49,6.11 37.77,17.06 52.39,31.67z"/>
   <path class="fil3 str2" d="M5463.89 783.84c-10.97,-8.52 -23.14,-14.61 -38.98,-15.82 -58.46,-3.67 -103.52,86.45 -124.22,170.51 -25.58,92.56 -30.45,211.91 7.3,222.87 31.67,8.53 77.95,-40.19 116.92,-163.2l23.14 -147.36c3.66,-25.6 9.74,-47.51 15.84,-67zm-101.09 549.28c-63.33,28.02 -118.14,71.86 -140.06,138.84 -23.15,70.65 -20.71,132.76 29.23,118.15 35.31,-12.18 69.42,-68.21 110.83,-256.99zm123.02 -593.13c42.62,-66.98 112.05,-63.33 163.19,-12.18 0,0 -47.5,52.38 -75.5,238.72 -13.41,92.56 -31.67,176.61 -51.16,252.12 68.2,-35.33 135.18,-90.13 169.28,-186.35l2.45 0c20.71,-7.31 41.4,8.53 25.58,47.5 -41.42,103.52 -110.84,163.21 -216.8,204.61 -59.68,190 -142.5,314.22 -244.81,349.54 -121.79,41.42 -211.91,-37.75 -171.72,-166.86 36.53,-113.26 152.23,-147.36 288.64,-192.43 8.54,-35.31 15.84,-76.72 23.15,-121.78 -28.02,51.15 -68.2,93.78 -127.88,97.43 -101.09,7.31 -160.77,-124.22 -129.11,-293.52 32.89,-177.82 158.34,-288.65 292.3,-248.47 19.49,6.11 37.77,17.06 52.39,31.67z"/>
   <path class="fil3" d="M5753.76 682.76c81.6,-54.82 157.11,29.22 157.11,29.22 0,0 -26.79,20.7 -51.15,168.09 84.04,-142.52 186.34,-207.06 248.45,-192.44 52.37,14.61 68.21,108.38 28.01,278.9 -26.78,112.05 -34.1,210.71 3.66,219.23 40.19,8.53 104.74,-65.77 136.4,-153.46l1.23 0c21.93,-7.31 41.41,8.53 26.8,47.5 -46.29,118.14 -148.6,202.17 -230.2,191.21 -84.04,-10.95 -135.18,-115.7 -91.34,-280.12 38.98,-144.93 29.23,-188.77 4.87,-193.64 -23.15,-6.11 -70.64,41.4 -144.94,220.43 -29.23,228.98 -64.54,263.07 -153.45,228.98 0,0 -4.87,-17.06 -4.87,-58.46 -1.23,-280.14 -7.32,-454.29 69.42,-505.44z"/>
   <path class="fil4 str2" d="M5753.76 682.76c81.6,-54.82 157.11,29.22 157.11,29.22 0,0 -26.79,20.7 -51.15,168.09 84.04,-142.52 186.34,-207.06 248.45,-192.44 52.37,14.61 68.21,108.38 28.01,278.9 -26.78,112.05 -34.1,210.71 3.66,219.23 40.19,8.53 104.74,-65.77 136.4,-153.46l1.23 0c21.93,-7.31 41.41,8.53 26.8,47.5 -46.29,118.14 -148.6,202.17 -230.2,191.21 -84.04,-10.95 -135.18,-115.7 -91.34,-280.12 38.98,-144.93 29.23,-188.77 4.87,-193.64 -23.15,-6.11 -70.64,41.4 -144.94,220.43 -29.23,228.98 -64.54,263.07 -153.45,228.98 0,0 -4.87,-17.06 -4.87,-58.46 -1.23,-280.14 -7.32,-454.29 69.42,-505.44z"/>
   <path class="fil5" d="M6765.97 366.11l33.77 0 0 -11.15 -79.92 0 0 11.15 33.76 0 0 89.99 12.39 0 0 -89.99zm116.97 29.58c3.25,-7.74 6.81,-16.72 10.53,-27.1l0.62 0c-0.77,14.25 -1.08,27.1 -1.08,38.57l0 48.94 12.39 0 0 -101.14 -17.82 0 -23.85 57.15c-2.32,5.58 -5.26,13.48 -8.98,23.7l-0.31 0c-3.25,-9.14 -6.35,-17.04 -8.98,-23.7l-23.85 -57.15 -17.81 0 0 101.14 12.38 0 0 -48.94c0,-11.62 -0.31,-24.48 -1.08,-38.57l0.62 0c3.56,9.76 7.13,18.74 10.53,27.1l25.56 60.41 5.57 0 25.56 -60.41z"/>
   <path class="fil3 str3" d="M6765.78 366.47l33.76 0 0 -11.15 -79.92 0 0 11.15 33.78 0 0 89.99 12.38 0 0 -89.99zm116.8 29.58c3.25,-7.74 6.81,-16.72 10.53,-27.1l0.62 0c-0.78,14.25 -1.08,27.1 -1.08,38.57l0 48.94 12.39 0 0 -101.14 -17.82 0 -23.84 57.15c-2.32,5.57 -5.27,13.47 -8.99,23.7l-0.31 0c-3.25,-9.14 -6.35,-17.04 -8.99,-23.7l-23.84 -57.15 -17.82 0 0 101.14 12.39 0 0 -48.94c0,-11.62 -0.3,-24.47 -1.08,-38.57l0.61 0c3.58,9.76 7.13,18.75 10.54,27.1l25.55 60.41 5.58 0 25.56 -60.41zm35.68 60.05"/>
  </g>
 </g>
</svg>
